PathFileType	4	(X/Y/Z)	F:\shared\Remotetake0125-Body25.trc
DataRate	CameraRate	NumFrames	NumMarkers	Units	OrigDataRate	OrigDataStartFrame	OrigNumFrames	useTimeStamp
60		60		4		79		mm		60		675		1799		1																					
Frame#	Time	Timestamp	HeadTop			LHeadFront			LHeadBack			RHeadFront			RHeadBack			C7			T10			CLAV			STRN			LShoulderFront			LShoulderBack			LUArmHigh			LElbow			LElbowIn			LForearm			LWristIn			LWristOut			LHandIn			LHandOut			RShoulderFront			RShoulderBack			RUArmHigh			RElbow			RElbowIn			RForearm			RWristIn			RWristOut			RHandIn			RHandOut			WaistLFront			WaistLSide			WaistLBack			WaistRFront			WaistRSide			WaistRBack			LThigh			LKnee			LKneeIn			LShin			LAnkleOut			LHeel			LMT5			LMT1			LToe			RThigh			RKnee			RKneeIn			RShin			RAnkleOut			RHeel			RMT5			RMT1			RToe			C7			C7			STRN			STRN			LUArmHigh			LForearm			RUArmHigh			RForearm			WaistLFront			WaistLFront			WaistLSide			WaistLSide			WaistLBack			WaistLBack			WaistRFront			WaistRFront			WaistRSide			WaistRSide			WaistRBack			WaistRBack			LThigh			LShin			RThigh			RShin			LShoulderFront			RShoulderFront			
			X1	Y1	Z1	X2	Y2	Z2	X3	Y3	Z3	X4	Y4	Z4	X5	Y5	Z5	X6	Y6	Z6	X7	Y7	Z7	X8	Y8	Z8	X9	Y9	Z9	X10	Y10	Z10	X11	Y11	Z11	X12	Y12	Z12	X13	Y13	Z13	X14	Y14	Z14	X15	Y15	Z15	X16	Y16	Z16	X17	Y17	Z17	X18	Y18	Z18	X19	Y19	Z19	X20	Y20	Z20	X21	Y21	Z21	X22	Y22	Z22	X23	Y23	Z23	X24	Y24	Z24	X25	Y25	Z25	X26	Y26	Z26	X27	Y27	Z27	X28	Y28	Z28	X29	Y29	Z29	X30	Y30	Z30	X31	Y31	Z31	X32	Y32	Z32	X33	Y33	Z33	X34	Y34	Z34	X35	Y35	Z35	X36	Y36	Z36	X37	Y37	Z37	X38	Y38	Z38	X39	Y39	Z39	X40	Y40	Z40	X41	Y41	Z41	X42	Y42	Z42	X43	Y43	Z43	X44	Y44	Z44	X45	Y45	Z45	X46	Y46	Z46	X47	Y47	Z47	X48	Y48	Z48	X49	Y49	Z49	X50	Y50	Z50	X51	Y51	Z51	X52	Y52	Z52	X53	Y53	Z53	X54	Y54	Z54	X55	Y55	Z55	X56	Y56	Z56	X57	Y57	Z57	X58	Y58	Z58	X59	Y59	Z59	X60	Y60	Z60	X61	Y61	Z61	X62	Y62	Z62	X63	Y63	Z63	X64	Y64	Z64	X65	Y65	Z65	X66	Y66	Z66	X67	Y67	Z67	X68	Y68	Z68	X69	Y69	Z69	X70	Y70	Z70	X71	Y71	Z71	X72	Y72	Z72	X73	Y73	Z73	X74	Y74	Z74	X75	Y75	Z75	X76	Y76	Z76	X77	Y77	Z77	X78	Y78	Z78	X79	Y79	Z79	

675	11.233	1702448222849	74.438965	-213.587936	1588.920410	57.917141	-338.949341	1551.908447	179.559662	-358.707886	1595.424316	151.894623	-188.423035	1554.553711	207.130219	-315.326447	1597.474243	335.892609	-406.768494	1417.631470	409.662109	-462.851837	1129.880981	209.087784	-272.108643	1250.150757	235.539734	-240.000900	1057.710205	124.319649	-393.146667	1299.151733	170.093445	-523.832825	1355.859009	95.260529	-533.779785	1215.795532	89.379478	-533.567566	1082.352539	194.382523	-571.592834	1055.126099																316.495667	-216.599533	1333.601318	438.733002	-290.185364	1367.687134	435.168091	-147.658249	1223.611694																						168.189880	-375.105682	909.536438	186.075836	-490.928009	920.812500	315.170746	-545.237000	942.153381	383.887543	-241.906952	926.612671				465.929626	-439.281189	947.590088	153.967834	-436.066864	613.073608																									388.036224	-172.382629	692.667480	468.992767	-206.309052	487.855103				489.769592	-301.592346	274.427032	515.728699	-401.669769	155.679840	487.851257	-459.972473	196.139725	502.606079	-313.464722	68.019501				441.409943	-305.040222	94.652863																																																																															
676	11.250	1702448222858	68.760345	-212.160919	1588.667358	52.923523	-337.708832	1551.515991	174.477127	-356.741333	1594.790039	146.243134	-186.704056	1554.343140	201.824524	-313.345612	1597.242065	332.579681	-402.937653	1418.480835	407.538788	-459.060516	1130.667847	203.609497	-271.009369	1249.833984	229.442825	-239.990280	1057.192993	120.585945	-392.434143	1299.306396	167.609451	-522.598206	1356.446167	92.848167	-533.788086	1216.258789	87.155342	-534.405273	1083.010376	192.633209	-571.211304	1055.709717																309.604797	-213.736664	1333.096924	432.960541	-284.941956	1367.578735	426.976440	-142.461838	1223.129639																						164.623718	-376.214722	909.966919	184.869278	-491.654846	920.805420	315.090210	-543.798584	942.109497	377.354462	-239.006042	927.125854				463.279816	-434.563690	947.819580	153.255402	-437.133820	612.972290																									375.712769	-167.414597	695.473999	455.320648	-198.960297	490.004395				471.579071	-289.195770	273.097137	500.815674	-386.194824	152.202866	476.652527	-446.048889	193.250092	479.363129	-297.998413	66.264900				415.360626	-293.582001	93.314697																																																																															
677	11.266	1702448222872	63.349678	-210.651489	1588.176880	48.034443	-336.170898	1550.968262	169.646484	-354.759216	1594.249146	140.692978	-184.860580	1553.901611	196.774948	-311.223877	1596.827759	328.763367	-399.088745	1418.676147	405.399445	-455.283844	1131.309082	197.984329	-269.935760	1249.081421	223.125946	-239.802185	1056.400513	116.970711	-391.762177	1299.405640	165.680344	-522.152161	1357.649658	90.667328	-533.624878	1216.720459	85.174797	-535.237793	1083.656372	191.169968	-570.713623	1056.130493																302.660187	-210.469315	1332.477539	427.197906	-279.401642	1367.279541	418.716522	-136.929382	1222.693115																						162.339584	-377.568298	909.419250	183.769363	-492.256805	920.749084	315.079132	-541.935120	942.430054	372.155090	-235.937653	926.806213				460.861877	-429.275635	948.020020	152.455261	-437.662170	612.588989																									363.728302	-163.257767	697.888855	439.507202	-192.608215	490.870605				455.034027	-274.875153	271.318390	484.797485	-369.565887	148.441818	464.568970	-430.737976	189.001175	455.141663	-280.601501	63.765980	346.690735	-336.576874	72.013481	393.852966	-279.770233	94.616737																																																																															
678	11.283	1702448222889	58.153973	-208.784668	1587.702759	43.346329	-334.371857	1550.393188	164.994980	-352.446198	1593.716187	135.397064	-182.619751	1553.417969	192.029449	-308.870148	1596.270020	325.105133	-395.091583	1418.706787	403.499512	-451.429779	1132.190552	192.256531	-268.659454	1248.315063	217.468994	-240.014786	1054.961914	113.207848	-391.221649	1299.245239	163.671936	-520.767151	1357.997314	89.552666	-533.173645	1216.622314	83.525681	-535.913269	1084.237183	189.663574	-570.086121	1056.384766																295.845337	-207.197128	1331.561157	421.621552	-273.713226	1366.889648	410.198059	-131.413757	1221.873901																						159.309113	-378.574158	908.929626	182.801361	-492.637177	920.815308	315.026581	-539.743408	942.660522	365.817749	-233.027847	926.605896				459.056366	-424.533325	948.671936	151.486740	-438.109131	612.267029																									351.685852	-159.271347	700.038208	422.030457	-187.558258	489.704834				437.017792	-259.507202	268.898712	465.826416	-347.666534	144.940857	451.189941	-414.026733	182.776718	430.745697	-261.226074	62.465374	324.809967	-323.003906	72.707764	370.495483	-264.282288	95.146683																																																																															
